<svg width="30" height="11" viewBox="0 0 30 11" fill="none" xmlns="http://www.w3.org/2000/svg">
<path d="M29.8485 6.69205C29.7405 6.07949 29.7459 5.2526 29.4913 4.66589C29.3271 4.30617 28.9028 4.18663 28.6169 3.99413C28.1677 3.73323 27.7102 3.42522 27.2611 3.16432C25.5704 2.15063 23.8798 1.13694 22.1892 0.123244C22.3607 0.238749 22.3803 1.207 22.4135 1.39548C22.4468 1.58396 22.4663 2.55222 22.6379 2.66772C23.4873 3.19813 24.3774 3.6728 25.2268 4.2032C16.889 4.36159 8.50229 4.5286 0.172774 4.73411C0.270527 4.71687 0.466496 7.25732 0.613126 7.23147C8.19288 7.06099 15.8215 6.8819 23.4584 6.74993C22.5058 7.06365 21.521 7.48023 20.6505 7.97382C20.5122 8.0468 20.7345 8.73636 20.8914 9.3403C20.9579 9.71726 21.0244 10.0942 21.0908 10.4712C21.2292 10.3982 21.4164 10.3166 21.5547 10.2436C21.5547 10.2436 21.6036 10.235 21.5952 10.1879C23.0679 9.39379 24.7048 8.95942 26.3416 8.52504C27.2537 8.26705 28.174 8.05618 29.0694 7.70395C29.5905 7.51491 29.8265 7.4247 29.8661 7.07763C29.8745 7.12475 29.9233 7.11613 29.9316 7.16325C29.915 7.06901 29.8984 6.97477 29.8818 6.88053C29.8735 6.83341 29.8569 6.73917 29.8485 6.69205ZM27.5382 5.59329C27.4893 5.60191 27.4893 5.60191 27.4404 5.61053C27.4321 5.56341 27.4238 5.51629 27.4238 5.51629C27.4238 5.51629 27.481 5.55479 27.5382 5.59329Z" fill="white"/>
</svg>
